<?xml version="1.0" encoding="utf-8"?>
<!-- Generator: Adobe Illustrator 20.1.0, SVG Export Plug-In . SVG Version: 6.00 Build 0)  -->
<svg version="1.1" xmlns="http://www.w3.org/2000/svg" xmlns:xlink="http://www.w3.org/1999/xlink" x="0px" y="0px"
	 viewBox="0 0 318 282" style="enable-background:new 0 0 318 282;" xml:space="preserve">
<style type="text/css">
	.st0{fill:#8CC6BE;}
	.st1{fill:none;stroke:#8CC6BE;stroke-miterlimit:10;}
	.st2{opacity:0.27;}
	.st3{fill:#8CC6BE;stroke:#8CC6BE;stroke-miterlimit:10;}
	.st4{font-family:'Asap-Regular';}
	.st5{font-size:69.16px;}
	.st6{font-size:103.9783px;}
	.st7{fill:#A49AD0;}
</style>
<g id="Layer_1">
	<g>
		<path class="st0" d="M252,130.3c0,0,0,0.7,0,2.2c-0.1,1.4,0,3.5-0.2,6.3c-0.3,5.5-1.2,13.6-3.8,23.6c-2.6,9.9-6.9,21.9-14.5,34.2
			c-3.8,6.2-8.4,12.4-13.9,18.4c-5.5,6-11.9,11.8-19.3,16.9c-3.7,2.5-7.6,5-11.7,7.2c-1,0.5-2.1,1.1-3.1,1.6c-1.1,0.5-2.2,1-3.2,1.5
			c-2.1,1-4.4,1.9-6.7,2.8c-1.1,0.5-2.3,0.8-3.4,1.2c-1.2,0.4-2.3,0.8-3.5,1.2c-1.2,0.3-2.4,0.7-3.6,1l-1.8,0.5l-1.8,0.4
			c-1.2,0.3-2.5,0.6-3.7,0.8c-1.2,0.3-2.5,0.5-3.7,0.7c-2.5,0.5-5,0.8-7.6,1.1c-1.3,0.2-2.6,0.2-3.9,0.3c-1.3,0.1-2.6,0.2-3.9,0.2
			c-1.3,0-2.6,0-3.9,0.1l-2,0l-0.3,0l-0.2,0l-0.5,0l-1,0c-1.3-0.1-2.6-0.1-3.9-0.2c-1.3-0.1-2.7-0.2-4-0.4c-2.7-0.2-5.3-0.7-8-1
			c-5.3-0.9-10.7-2.1-15.9-3.8c-2.6-0.8-5.2-1.8-7.8-2.7c-1.3-0.5-2.6-1.1-3.8-1.6l-1.9-0.8l-1.9-0.9C63,231.6,44.9,216.3,32,196.9
			c-6.4-9.7-11.6-20.3-15.2-31.6c-1.8-5.6-3.1-11.4-4.2-17.2c-1-5.9-1.4-11.8-1.6-17.7c0-3-0.1-5.8,0.2-8.9c0.1-1.5,0.1-3,0.3-4.5
			l0.5-4.4c0.8-5.9,1.9-11.8,3.6-17.5c1.7-5.7,3.7-11.4,6.2-16.8c2.5-5.4,5.3-10.6,8.6-15.6c12.9-19.9,31.5-35.4,52.2-44.7
			c20.6-9.4,43.2-12.3,63.7-9.8c2.6,0.3,5.1,0.6,7.6,1.2c1.3,0.2,2.5,0.4,3.8,0.7c1.2,0.3,2.5,0.6,3.7,0.9l1.8,0.4l1.8,0.5
			c1.2,0.3,2.4,0.7,3.6,1c1.2,0.4,2.3,0.8,3.5,1.2c1.2,0.4,2.3,0.8,3.4,1.3c2.2,0.9,4.5,1.8,6.7,2.9c1.1,0.5,2.2,1,3.2,1.5
			c1,0.6,2.1,1.1,3.1,1.7c4.2,2.2,8,4.7,11.7,7.2c7.4,5.1,13.8,11,19.3,17c5.5,6,10.1,12.3,13.9,18.4c7.6,12.3,11.9,24.3,14.5,34.2
			c2.6,10,3.4,18.1,3.8,23.6c0.2,2.7,0.2,4.9,0.2,6.3C252,129.6,252,130.3,252,130.3L252,130.3z M251.3,130.3c0,0,0-0.7-0.1-2.1
			c-0.1-1.4,0-3.5-0.3-6.2c-0.4-5.4-1.3-13.5-4.2-23.3c-1.3-4.9-3.4-10.2-6-15.8c-2.5-5.6-5.8-11.3-9.9-17.1
			c-4-5.8-8.9-11.5-14.5-17c-5.6-5.5-12.1-10.6-19.3-15.2c-3.6-2.3-7.4-4.5-11.4-6.4c-1-0.5-2-1-3-1.5c-1-0.4-2.1-0.9-3.1-1.3
			c-2.1-1-4.2-1.7-6.4-2.5c-8.6-3.1-17.9-5.3-27.6-6.4c-1.2-0.2-2.4-0.2-3.6-0.3c-1.2-0.1-2.4-0.2-3.6-0.2c-1.3,0-2.6,0-3.8-0.1
			l-1.9,0l-1.8,0.1c-1.3,0-2.5,0.1-3.8,0.1c-1.3,0-2.5,0.2-3.8,0.3c-2.5,0.1-5,0.5-7.6,0.8c-5.1,0.8-10.1,1.8-15.2,3.3
			c-2.5,0.7-5,1.6-7.5,2.4c-1.2,0.4-2.5,0.9-3.7,1.4l-1.9,0.7l-1.8,0.8c-9.8,4.2-19.1,9.9-27.6,16.9c-4.3,3.5-8.2,7.4-12,11.4
			C42.1,57,38.7,61.4,35.5,66c-12.6,18.6-20.1,41.2-20.6,64.3c0,5.8,0.2,11.5,1,17.3c0.8,5.7,1.9,11.4,3.5,16.9
			c1.7,5.5,3.6,11,6,16.2c2.5,5.2,5.2,10.2,8.4,15c6.3,9.5,14,18,22.7,25.1c8.7,7.1,18.3,12.7,28.2,16.9l1.9,0.8l1.9,0.7
			c1.3,0.5,2.5,0.9,3.8,1.4c2.6,0.8,5.1,1.7,7.7,2.3c5.1,1.4,10.3,2.3,15.4,3c2.6,0.3,5.1,0.6,7.6,0.7c1.3,0.1,2.5,0.2,3.8,0.2
			c1.3,0,2.6,0,3.9,0l1,0l0.5,0l0.2,0c0.1,0,0,0,0.2,0l1.9-0.1c1.3,0,2.5-0.1,3.7-0.1c1.2-0.1,2.5-0.2,3.7-0.3
			c1.2-0.1,2.5-0.2,3.7-0.4c9.7-1.2,19.1-3.5,27.7-6.7c2.1-0.8,4.3-1.6,6.4-2.6c1-0.5,2.1-0.9,3.1-1.4c1-0.5,2-1,3-1.5
			c4-2,7.8-4.2,11.4-6.5c14.4-9.3,25.7-20.8,33.8-32.4c4.1-5.8,7.4-11.5,9.9-17.1c2.6-5.6,4.6-10.8,6-15.8
			c2.9-9.8,3.8-17.8,4.2-23.3c0.3-2.7,0.2-4.8,0.3-6.2C251.3,131,251.3,130.3,251.3,130.3L251.3,130.3z"/>
	</g>
	<g>
		<path class="st0" d="M201.1,215.3c0,0-0.5,0.4-1.5,1.2c-1,0.8-2.5,2-4.6,3.4c-4.1,2.9-10.3,7-18.8,10.9
			c-8.5,3.9-19.4,7.8-32.5,9.5c-6.5,0.9-13.6,1.3-21,0.9c-7.4-0.5-15.2-1.6-23.1-3.8c-3.9-1.2-7.9-2.4-11.8-4.1c-1-0.4-2-0.8-3-1.3
			c-1-0.5-1.9-0.9-2.9-1.4c-2-0.9-3.9-2-5.8-3.1c-1-0.5-1.9-1.1-2.9-1.7c-1-0.6-1.9-1.2-2.8-1.8c-0.9-0.6-1.8-1.3-2.8-1.9l-1.4-1
			l-1.4-1c-0.9-0.7-1.8-1.4-2.7-2.1c-0.9-0.7-1.8-1.5-2.6-2.2c-1.8-1.5-3.5-3.1-5.1-4.8c-0.9-0.8-1.6-1.7-2.5-2.6
			c-0.8-0.9-1.6-1.7-2.4-2.6c-0.8-0.9-1.5-1.8-2.3-2.7l-1.2-1.4l-0.2-0.2l-0.1-0.2l-0.3-0.4l-0.5-0.7c-0.7-0.9-1.4-1.9-2.1-2.8
			c-0.7-1-1.4-2-2.1-3c-1.4-2-2.6-4.2-3.9-6.3c-2.4-4.3-4.6-8.8-6.4-13.4c-1-2.3-1.7-4.7-2.6-7.1c-0.4-1.2-0.7-2.4-1.1-3.6l-0.5-1.8
			l-0.4-1.9c-4.9-19.7-4.4-41.3,1.8-61.6c3.1-10.1,7.7-19.9,13.5-28.9c2.9-4.5,6.2-8.8,9.7-12.9c3.6-4.1,7.5-7.8,11.6-11.4
			c2.2-1.7,4.1-3.4,6.4-5c1.1-0.8,2.2-1.7,3.3-2.4l3.4-2.2C80.2,33,85,30.4,90,28.2c5-2.1,10.1-4,15.4-5.3
			c5.3-1.3,10.6-2.4,15.9-2.9c21.5-2.4,43.2,1.8,61.7,11c18.5,9.2,33.6,23.4,43.7,39.4c1.2,2,2.5,4,3.6,6.1c0.6,1,1.1,2,1.7,3.1
			c0.5,1,1,2.1,1.5,3.1l0.7,1.6l0.7,1.6c0.4,1,0.9,2.1,1.3,3.1c0.4,1,0.8,2.1,1.2,3.2c0.4,1.1,0.8,2.1,1.1,3.2
			c0.6,2.1,1.3,4.2,1.8,6.3c0.3,1.1,0.5,2.1,0.8,3.2c0.2,1.1,0.4,2.1,0.6,3.2c0.9,4.2,1.3,8.4,1.6,12.5c0.6,8.2,0.1,16.1-1,23.4
			c-1.1,7.4-2.9,14.2-5.1,20.4c-4.4,12.5-10.3,22.3-15.8,29.9c-5.6,7.5-10.8,12.8-14.5,16.2c-1.8,1.8-3.3,2.9-4.3,3.8
			C201.7,214.9,201.1,215.3,201.1,215.3L201.1,215.3z M200.7,214.8c0,0,0.5-0.4,1.5-1.3c1-0.9,2.5-2,4.2-3.8
			c3.6-3.4,8.7-8.7,13.9-16.4c2.7-3.8,5.2-8.3,7.6-13.3c2.4-5,4.6-10.6,6.3-16.8c1.7-6.2,3-12.9,3.6-20c0.6-7.1,0.5-14.6-0.4-22.3
			c-0.5-3.9-1.1-7.8-2.1-11.7c-0.2-1-0.5-2-0.7-3c-0.3-1-0.6-2-0.8-2.9c-0.5-2-1.2-3.9-1.9-5.9c-2.8-7.9-6.5-15.7-11.4-23.1
			c-0.6-1-1.2-1.8-1.9-2.7c-0.6-0.9-1.3-1.8-1.9-2.7c-0.7-0.9-1.4-1.8-2.2-2.7l-1.1-1.4l-1.1-1.2c-0.7-0.9-1.5-1.7-2.2-2.6
			c-0.8-0.9-1.6-1.7-2.3-2.5c-1.5-1.7-3.3-3.2-4.9-4.9c-3.5-3.1-7.1-6.1-11-8.8c-1.9-1.4-4-2.6-6-3.9c-1-0.6-2.1-1.2-3.1-1.8
			l-1.6-0.9l-1.6-0.8c-8.6-4.5-17.9-7.7-27.7-9.7c-4.9-1-9.9-1.6-14.9-1.9c-5-0.3-10.1-0.1-15.2,0.2c-20.3,1.8-40.5,9.4-57,22.3
			c-4.1,3.3-8,6.8-11.6,10.6c-3.6,3.8-7,7.9-9.9,12.2c-2.9,4.3-5.6,8.8-7.9,13.5c-2.2,4.7-4.2,9.6-5.7,14.5
			c-3,9.9-4.6,20.2-4.6,30.4c0,10.2,1.6,20.2,4.4,29.6l0.5,1.8l0.6,1.7c0.4,1.2,0.8,2.3,1.2,3.4c0.9,2.2,1.8,4.5,2.8,6.7
			c1.9,4.4,4.3,8.5,6.8,12.5c1.3,2,2.5,4,3.9,5.8c0.7,0.9,1.3,1.8,2,2.8c0.7,0.9,1.5,1.8,2.2,2.8l0.5,0.7l0.3,0.3l0.1,0.2
			c0.1,0.1,0,0,0.1,0.1l1.1,1.3c0.8,0.9,1.5,1.7,2.2,2.5c0.8,0.8,1.6,1.6,2.4,2.4c0.8,0.8,1.5,1.6,2.4,2.4
			c6.4,6.1,13.4,11.4,20.6,15.6c1.8,1,3.6,2.1,5.4,3c0.9,0.5,1.8,0.9,2.7,1.4c0.9,0.4,1.9,0.8,2.8,1.2c3.7,1.7,7.4,3.1,11.1,4.3
			c14.8,4.8,29.4,6.2,42.1,5.3c6.4-0.4,12.4-1.4,17.7-2.8c5.4-1.4,10.3-3,14.5-4.8c8.6-3.5,14.8-7.5,18.8-10.4
			c2.1-1.4,3.5-2.6,4.6-3.4C200.2,215.2,200.7,214.8,200.7,214.8L200.7,214.8z"/>
	</g>
	<g>
		<path class="st0" d="M88,48.1c0.3,1.6,0.5,3.2,0.8,4.8c0.2,1.6,0.5,3.2,0.7,4.8c0.4,3.2,0.8,6.5,1.1,9.7c0.3,3.2,0.6,6.5,0.8,9.7
			c0.2,3.2,0.4,6.5,0.6,9.7c0.2,3.2,0.3,6.5,0.4,9.7c0.1,1.6,0.1,3.2,0.1,4.8c0,1.6,0.1,3.2,0.1,4.8c0,3.2,0.1,6.5,0,9.7
			c0,3.2-0.1,6.5-0.1,9.7l-4.3-4.3c2.1,0,4.3,0.1,6.4,0.2c2.1,0.1,4.3,0.2,6.4,0.3c2.1,0.1,4.3,0.2,6.4,0.4c2.1,0.1,4.3,0.3,6.4,0.4
			c4.3,0.4,8.6,0.7,12.9,1.2c2.1,0.3,4.3,0.5,6.4,0.8c2.1,0.3,4.3,0.6,6.4,1c-2.1,0.4-4.3,0.7-6.4,1c-2.1,0.3-4.3,0.6-6.4,0.8
			c-4.3,0.5-8.6,0.9-12.9,1.2c-2.1,0.1-4.3,0.3-6.4,0.4c-2.1,0.1-4.3,0.3-6.4,0.4c-2.1,0.1-4.3,0.2-6.4,0.3
			c-2.1,0.1-4.3,0.2-6.4,0.2l-4.2,0.1l-0.1-4.4c-0.1-3.2-0.1-6.5-0.1-9.7c0-3.2,0-6.5,0-9.7c0-1.6,0.1-3.2,0.1-4.8
			c0-1.6,0.1-3.2,0.1-4.8c0.1-3.2,0.2-6.5,0.4-9.7c0.2-3.2,0.3-6.5,0.6-9.7c0.2-3.2,0.5-6.5,0.8-9.7c0.3-3.2,0.7-6.5,1.1-9.7
			c0.2-1.6,0.4-3.2,0.7-4.8C87.5,51.3,87.7,49.7,88,48.1z"/>
	</g>
	<path class="st1" d="M88.4,134.1"/>
	<g class="st2">
		<path class="st0" d="M87.8,198c-1.1-6-1.8-12-2.5-18c-0.3-3-0.6-6-0.8-9c-0.2-3-0.4-6-0.6-9c-0.1-3-0.3-6-0.4-9
			c-0.1-3-0.2-6-0.2-9l0-4.5c0-1.5,0-3,0-4.5c0-3,0-6,0.1-9l4.4,4.4c-2.1,0-4.3-0.1-6.4-0.2c-2.1-0.1-4.3-0.1-6.4-0.3
			c-4.3-0.2-8.6-0.5-12.9-0.8c-2.1-0.2-4.3-0.4-6.4-0.6c-2.1-0.2-4.3-0.4-6.4-0.7c-2.1-0.3-4.3-0.5-6.4-0.8
			c-2.1-0.3-4.3-0.7-6.4-1.1c2.1-0.4,4.3-0.8,6.4-1.1c2.1-0.3,4.3-0.6,6.4-0.8c2.1-0.3,4.3-0.5,6.4-0.7c2.1-0.2,4.3-0.4,6.4-0.6
			c4.3-0.3,8.6-0.6,12.9-0.8c2.1-0.1,4.3-0.2,6.4-0.3c2.1-0.1,4.3-0.1,6.4-0.2l4.3-0.1l0.1,4.5c0.1,3,0.1,6,0.1,9c0,1.5,0,3,0,4.5
			l0,4.5c-0.1,3-0.1,6-0.2,9c-0.1,3-0.2,6-0.4,9c-0.2,3-0.3,6-0.6,9c-0.2,3-0.5,6-0.8,9C89.7,186,89,192,87.8,198z"/>
	</g>
</g>
<g id="Layer_3">
</g>
<g id="Layer_2">
	<text transform="matrix(0.93 0 0 1 99.1768 194.1436)" class="st3 st4 st5">IME</text>
	<text transform="matrix(1 0 0 1 239.3333 249.6239)" class="st0 st4 st6">N</text>
	<g>
		<path class="st0" d="M13,264c0,0,1.1-0.1,3.3-0.2c2.1-0.1,5.3-0.3,9.2-0.4c4-0.2,8.8-0.4,14.4-0.5c5.5-0.2,11.8-0.4,18.6-0.6
			c6.8-0.2,14.2-0.4,22-0.5c7.8-0.1,16.1-0.3,24.6-0.4c8.5-0.1,17.3-0.2,26.3-0.3c9,0,18-0.1,27.1-0.1c9.1,0,18.2,0.1,27.1,0.1
			c9,0,17.8,0.2,26.3,0.3c8.5,0.1,16.8,0.3,24.6,0.4c7.8,0.1,15.2,0.3,22,0.5c6.8,0.2,13.1,0.4,18.6,0.6c5.5,0.2,10.4,0.4,14.4,0.6
			c4,0.2,7.1,0.3,9.2,0.4c2.1,0.1,3.3,0.2,3.3,0.2s-1.1,0.1-3.3,0.2c-2.1,0.1-5.3,0.3-9.2,0.4c-4,0.2-8.8,0.4-14.4,0.6
			c-5.5,0.2-11.8,0.4-18.6,0.6c-6.8,0.2-14.2,0.4-22,0.5c-7.8,0.2-16.1,0.3-24.6,0.4c-8.5,0.1-17.3,0.3-26.3,0.3
			c-9,0-18,0.1-27.1,0.1c-9.1,0-18.2-0.1-27.1-0.1c-9,0-17.8-0.2-26.3-0.3c-8.5-0.1-16.8-0.3-24.6-0.4c-7.8-0.1-15.2-0.3-22-0.5
			c-6.8-0.2-13.1-0.4-18.6-0.6c-5.5-0.2-10.4-0.4-14.4-0.5c-4-0.1-7.1-0.3-9.2-0.4C14.1,264.1,13,264,13,264z"/>
	</g>
	<circle class="st7" cx="108.2" cy="136.2" r="4.2"/>
	<g>
		<line class="st0" x1="132" y1="22" x2="132" y2="32"/>
		<polygon class="st7" points="136,22 132.5,31.5 129,22 		"/>
	</g>
	<g>
		<line class="st0" x1="239" y1="129" x2="233" y2="129"/>
		<polygon class="st7" points="239,132 233.2,128.5 239,125 		"/>
	</g>
	<g>
		<line class="st0" x1="132" y1="239" x2="132" y2="231"/>
		<polygon class="st7" points="129,239 132.5,231.1 136,239 		"/>
	</g>
	<g>
		<line class="st0" x1="25" y1="127" x2="31" y2="127"/>
		<polygon class="st7" points="25,123 30.7,126.5 25,130 		"/>
	</g>
</g>
</svg>
