<svg id="Layer_1" data-name="Layer 1" xmlns="http://www.w3.org/2000/svg" viewBox="0 0 332.75 332.75"><defs><style>.cls-1,.cls-2{fill:none;stroke:#8cc6be;stroke-linecap:round;stroke-miterlimit:10;}.cls-1{stroke-width:12px;}.cls-3{fill:#8cc6be;}</style></defs><title>logo</title><circle class="cls-1" cx="166.38" cy="166.38" r="160.38"/><path class="cls-2" d="M203,84.23" transform="translate(-32.22 -32.94)"/><path class="cls-3" d="M195.83,96.91s.17,1.68.4,4.83.51,7.77.68,13.65A460.31,460.31,0,0,1,195.73,164c-.4,5-.87,10.26-1.49,15.67s-1.37,11-2.39,16.71a253.87,253.87,0,0,1-9.15,35.43c-2,6-4.19,12.13-6.66,18.21-1.24,3-2.56,6.07-4,9.06a76.53,76.53,0,0,1-4.94,8.82,37.92,37.92,0,0,1-6.8,8,19.91,19.91,0,0,1-10,4.78l-.62.09a4.68,4.68,0,0,1-.68.07l-1.53.08a23.16,23.16,0,0,1-2.84-.18,26.4,26.4,0,0,1-5.42-1.25,41.23,41.23,0,0,1-9.76-4.77A51.59,51.59,0,0,1,114,259.45a29.6,29.6,0,0,1-2.65-5.3,18.13,18.13,0,0,1-1.27-6.82,12.22,12.22,0,0,1,.89-4.29l.46-1c.06-.11.07-.15.16-.31l.39-.61.42-.6a5.77,5.77,0,0,1,.41-.52q.37-.42.76-.82a17,17,0,0,1,6.34-3.77,32.46,32.46,0,0,1,5.82-1.43,54,54,0,0,1,5.45-.57,100.25,100.25,0,0,1,10.36,0c6.74.29,13.24,1,19.58,1.92A334.62,334.62,0,0,1,197,242.62c11.21,2.91,21.69,6,31.28,9.06s18.31,6.09,26,8.9l5.57,2,5.16,2c3.3,1.27,6.34,2.44,9.05,3.56,10.9,4.39,17,7.24,17,7.24a.66.66,0,0,1-.38,1.24s-6.65-1.12-18.13-3.48c-2.88-.56-6-1.25-9.5-2s-7.19-1.51-11.15-2.4c-8-1.72-16.91-3.71-26.66-5.89s-20.28-4.56-31.4-7-22.82-5-34.88-7.22c-6-1.1-12.15-2.11-18.27-2.71a88.39,88.39,0,0,0-9.07-.48,32.53,32.53,0,0,0-8.09.87,8.25,8.25,0,0,0-2.25.95l-.1.07s0,0,0,0a.41.41,0,0,0,.05-.1.45.45,0,0,0,0-.12,2,2,0,0,0-.14.22l-.16.27-.08.13c-.19.36.16-.33.13-.27a1.19,1.19,0,0,0-.19.52,7.41,7.41,0,0,0,.26,2.94,19.54,19.54,0,0,0,1.42,3.78,39.27,39.27,0,0,0,4.75,7.58,47.35,47.35,0,0,0,6.38,6.7,34.33,34.33,0,0,0,7.64,5,20.89,20.89,0,0,0,4.19,1.44,18.14,18.14,0,0,0,2.13.36l1,.06a2.76,2.76,0,0,0,.56,0l.62,0a12.89,12.89,0,0,0,4.09-1,17.6,17.6,0,0,0,3.8-2.25,29.79,29.79,0,0,0,6.19-6.89,67.2,67.2,0,0,0,7.92-17.26A137.21,137.21,0,0,0,176,230.18c1-6.11,1.82-12.16,2.51-18.09l2.06-17.37c.7-5.64,1.4-11.13,2.14-16.43l2-15.39c2.59-19.75,4.82-36.29,6.66-47.86.9-5.79,1.7-10.34,2.24-13.44s.9-4.76.9-4.76a.66.66,0,0,1,1.3.07Z" transform="translate(-32.22 -32.94)"/></svg>